<?xml version="1.0" encoding="us-ascii" standalone="no"?><svg xmlns="http://www.w3.org/2000/svg" xmlns:xlink="http://www.w3.org/1999/xlink" contentStyleType="text/css" height="501.0417px" preserveAspectRatio="none" style="width:634px;height:501px;" version="1.1" viewBox="0 0 634 501" width="634.375px" zoomAndPan="magnify"><defs><linearGradient id="gn3jom13riw6e0" x1="50%" x2="50%" y1="0%" y2="100%"><stop offset="0%" stop-color="#B8B8B8"/><stop offset="100%" stop-color="#6B6B6B"/></linearGradient><linearGradient id="gn3jom13riw6e1" x1="50%" x2="50%" y1="0%" y2="100%"><stop offset="0%" stop-color="#7C9AB9"/><stop offset="100%" stop-color="#304D6D"/></linearGradient></defs><g><!--cluster InterChain Mail Protocol--><g id="cluster_InterChain Mail Protocol"><path d="M20.8333,16.6667 L206.25,16.6667 A6.25,6.25 0 0 1 210.4167,20.8333 L217.7083,47.8841 L617.7083,47.8841 A4.1667,4.1667 0 0 1 621.875,52.0508 L621.875,485.2917 A4.1667,4.1667 0 0 1 617.7083,489.4583 L20.8333,489.4583 A4.1667,4.1667 0 0 1 16.6667,485.2917 L16.6667,20.8333 A4.1667,4.1667 0 0 1 20.8333,16.6667 " fill="url(#gn3jom13riw6e0)" style="stroke:#446E9B;stroke-width:2.0833333333333335;"/><line style="stroke:#446E9B;stroke-width:2.0833333333333335;" x1="16.6667" x2="217.7083" y1="47.8841" y2="47.8841"/><text fill="#446E9B" font-family="Verdana" font-size="12.5" font-weight="bold" lengthAdjust="spacing" textLength="177.0833" x="26.0417" y="35.5611">InterChain Mail Protocol</text></g><!--entity Ethereum--><g id="elem_Ethereum"><rect fill="url(#gn3jom13riw6e1)" height="56.2174" rx="4.1667" ry="4.1667" style="stroke:#304D6D;stroke-width:1.0416666666666667;" width="115.625" x="280.7292" y="60.4167"/><rect fill="url(#gn3jom13riw6e1)" height="10.4167" style="stroke:#304D6D;stroke-width:1.0416666666666667;" width="15.625" x="375.5208" y="65.625"/><rect fill="url(#gn3jom13riw6e1)" height="2.0833" style="stroke:#304D6D;stroke-width:1.0416666666666667;" width="4.1667" x="373.4375" y="67.7083"/><rect fill="url(#gn3jom13riw6e1)" height="2.0833" style="stroke:#304D6D;stroke-width:1.0416666666666667;" width="4.1667" x="373.4375" y="71.875"/><text fill="#FFFFFF" font-family="Verdana" font-size="12.5" lengthAdjust="spacing" textLength="63.5417" x="301.5625" y="98.0611">Ethereum</text></g><!--entity Smart Contracts--><g id="elem_Smart Contracts"><rect fill="url(#gn3jom13riw6e1)" height="56.2174" rx="4.1667" ry="4.1667" style="stroke:#304D6D;stroke-width:1.0416666666666667;" width="158.3333" x="182.2917" y="179.1354"/><rect fill="url(#gn3jom13riw6e1)" height="10.4167" style="stroke:#304D6D;stroke-width:1.0416666666666667;" width="15.625" x="319.7917" y="184.3437"/><rect fill="url(#gn3jom13riw6e1)" height="2.0833" style="stroke:#304D6D;stroke-width:1.0416666666666667;" width="4.1667" x="317.7083" y="186.4271"/><rect fill="url(#gn3jom13riw6e1)" height="2.0833" style="stroke:#304D6D;stroke-width:1.0416666666666667;" width="4.1667" x="317.7083" y="190.5937"/><text fill="#FFFFFF" font-family="Verdana" font-size="12.5" lengthAdjust="spacing" textLength="106.25" x="203.125" y="216.7799">Smart Contracts</text></g><!--entity Polygon--><g id="elem_Polygon"><rect fill="url(#gn3jom13riw6e1)" height="56.2174" rx="4.1667" ry="4.1667" style="stroke:#304D6D;stroke-width:1.0416666666666667;" width="103.125" x="43.2292" y="179.1354"/><rect fill="url(#gn3jom13riw6e1)" height="10.4167" style="stroke:#304D6D;stroke-width:1.0416666666666667;" width="15.625" x="125.5208" y="184.3437"/><rect fill="url(#gn3jom13riw6e1)" height="2.0833" style="stroke:#304D6D;stroke-width:1.0416666666666667;" width="4.1667" x="123.4375" y="186.4271"/><rect fill="url(#gn3jom13riw6e1)" height="2.0833" style="stroke:#304D6D;stroke-width:1.0416666666666667;" width="4.1667" x="123.4375" y="190.5937"/><text fill="#FFFFFF" font-family="Verdana" font-size="12.5" lengthAdjust="spacing" textLength="51.0417" x="64.0625" y="216.7799">Polygon</text></g><!--entity Arbitrum--><g id="elem_Arbitrum"><rect fill="url(#gn3jom13riw6e1)" height="56.2174" rx="4.1667" ry="4.1667" style="stroke:#304D6D;stroke-width:1.0416666666666667;" width="107.2917" x="377.6042" y="179.1354"/><rect fill="url(#gn3jom13riw6e1)" height="10.4167" style="stroke:#304D6D;stroke-width:1.0416666666666667;" width="15.625" x="464.0625" y="184.3437"/><rect fill="url(#gn3jom13riw6e1)" height="2.0833" style="stroke:#304D6D;stroke-width:1.0416666666666667;" width="4.1667" x="461.9792" y="186.4271"/><rect fill="url(#gn3jom13riw6e1)" height="2.0833" style="stroke:#304D6D;stroke-width:1.0416666666666667;" width="4.1667" x="461.9792" y="190.5937"/><text fill="#FFFFFF" font-family="Verdana" font-size="12.5" lengthAdjust="spacing" textLength="55.2083" x="398.4375" y="216.7799">Arbitrum</text></g><!--entity Base--><g id="elem_Base"><rect fill="url(#gn3jom13riw6e1)" height="56.2174" rx="4.1667" ry="4.1667" style="stroke:#304D6D;stroke-width:1.0416666666666667;" width="84.375" x="33.8542" y="297.8542"/><rect fill="url(#gn3jom13riw6e1)" height="10.4167" style="stroke:#304D6D;stroke-width:1.0416666666666667;" width="15.625" x="97.3958" y="303.0625"/><rect fill="url(#gn3jom13riw6e1)" height="2.0833" style="stroke:#304D6D;stroke-width:1.0416666666666667;" width="4.1667" x="95.3125" y="305.1458"/><rect fill="url(#gn3jom13riw6e1)" height="2.0833" style="stroke:#304D6D;stroke-width:1.0416666666666667;" width="4.1667" x="95.3125" y="309.3125"/><text fill="#FFFFFF" font-family="Verdana" font-size="12.5" lengthAdjust="spacing" textLength="32.2917" x="54.6875" y="335.4986">Base</text></g><!--entity Zetachain--><g id="elem_Zetachain"><rect fill="url(#gn3jom13riw6e1)" height="56.2174" rx="4.1667" ry="4.1667" style="stroke:#304D6D;stroke-width:1.0416666666666667;" width="118.75" x="125" y="60.4167"/><rect fill="url(#gn3jom13riw6e1)" height="10.4167" style="stroke:#304D6D;stroke-width:1.0416666666666667;" width="15.625" x="222.9167" y="65.625"/><rect fill="url(#gn3jom13riw6e1)" height="2.0833" style="stroke:#304D6D;stroke-width:1.0416666666666667;" width="4.1667" x="220.8333" y="67.7083"/><rect fill="url(#gn3jom13riw6e1)" height="2.0833" style="stroke:#304D6D;stroke-width:1.0416666666666667;" width="4.1667" x="220.8333" y="71.875"/><text fill="#FFFFFF" font-family="Verdana" font-size="12.5" lengthAdjust="spacing" textLength="66.6667" x="145.8333" y="98.0611">Zetachain</text></g><!--entity Cross-Chain Communication--><g id="elem_Cross-Chain Communication"><rect fill="url(#gn3jom13riw6e1)" height="56.2174" rx="4.1667" ry="4.1667" style="stroke:#304D6D;stroke-width:1.0416666666666667;" width="233.3333" x="154.1667" y="297.8542"/><rect fill="url(#gn3jom13riw6e1)" height="10.4167" style="stroke:#304D6D;stroke-width:1.0416666666666667;" width="15.625" x="366.6667" y="303.0625"/><rect fill="url(#gn3jom13riw6e1)" height="2.0833" style="stroke:#304D6D;stroke-width:1.0416666666666667;" width="4.1667" x="364.5833" y="305.1458"/><rect fill="url(#gn3jom13riw6e1)" height="2.0833" style="stroke:#304D6D;stroke-width:1.0416666666666667;" width="4.1667" x="364.5833" y="309.3125"/><text fill="#FFFFFF" font-family="Verdana" font-size="12.5" lengthAdjust="spacing" textLength="181.25" x="175" y="335.4986">Cross-Chain Communication</text></g><!--entity Web3 Environments--><g id="elem_Web3 Environments"><rect fill="url(#gn3jom13riw6e1)" height="56.2174" rx="4.1667" ry="4.1667" style="stroke:#304D6D;stroke-width:1.0416666666666667;" width="181.25" x="190.625" y="416.5729"/><rect fill="url(#gn3jom13riw6e1)" height="10.4167" style="stroke:#304D6D;stroke-width:1.0416666666666667;" width="15.625" x="351.0417" y="421.7813"/><rect fill="url(#gn3jom13riw6e1)" height="2.0833" style="stroke:#304D6D;stroke-width:1.0416666666666667;" width="4.1667" x="348.9583" y="423.8646"/><rect fill="url(#gn3jom13riw6e1)" height="2.0833" style="stroke:#304D6D;stroke-width:1.0416666666666667;" width="4.1667" x="348.9583" y="428.0313"/><text fill="#FFFFFF" font-family="Verdana" font-size="12.5" lengthAdjust="spacing" textLength="129.1667" x="211.4583" y="454.2174">Web3 Environments</text></g><!--entity User Interfaces--><g id="elem_User Interfaces"><rect fill="url(#gn3jom13riw6e1)" height="56.2174" rx="4.1667" ry="4.1667" style="stroke:#304D6D;stroke-width:1.0416666666666667;" width="152.0833" x="428.125" y="416.5729"/><rect fill="url(#gn3jom13riw6e1)" height="10.4167" style="stroke:#304D6D;stroke-width:1.0416666666666667;" width="15.625" x="559.375" y="421.7813"/><rect fill="url(#gn3jom13riw6e1)" height="2.0833" style="stroke:#304D6D;stroke-width:1.0416666666666667;" width="4.1667" x="557.2917" y="423.8646"/><rect fill="url(#gn3jom13riw6e1)" height="2.0833" style="stroke:#304D6D;stroke-width:1.0416666666666667;" width="4.1667" x="557.2917" y="428.0313"/><text fill="#FFFFFF" font-family="Verdana" font-size="12.5" lengthAdjust="spacing" textLength="100" x="448.9583" y="454.2174">User Interfaces</text></g><!--entity Web2 Environments--><g id="elem_Web2 Environments"><rect fill="url(#gn3jom13riw6e1)" height="56.2174" rx="4.1667" ry="4.1667" style="stroke:#304D6D;stroke-width:1.0416666666666667;" width="181.25" x="423.9583" y="297.8542"/><rect fill="url(#gn3jom13riw6e1)" height="10.4167" style="stroke:#304D6D;stroke-width:1.0416666666666667;" width="15.625" x="584.375" y="303.0625"/><rect fill="url(#gn3jom13riw6e1)" height="2.0833" style="stroke:#304D6D;stroke-width:1.0416666666666667;" width="4.1667" x="582.2917" y="305.1458"/><rect fill="url(#gn3jom13riw6e1)" height="2.0833" style="stroke:#304D6D;stroke-width:1.0416666666666667;" width="4.1667" x="582.2917" y="309.3125"/><text fill="#FFFFFF" font-family="Verdana" font-size="12.5" lengthAdjust="spacing" textLength="129.1667" x="444.7917" y="335.4986">Web2 Environments</text></g><!--link Ethereum to Smart Contracts--><g id="link_Ethereum_Smart Contracts"><path d="M320.4688,116.9167 C308.1875,135.5 295.4467,154.7863 283.1342,173.4113 " fill="none" id="Ethereum-to-Smart Contracts" style="stroke:#446E9B;stroke-width:3.125;"/><polygon fill="#446E9B" points="279.6875,178.625,288.3333,173.1022,282.5597,174.2802,281.3817,168.5066,279.6875,178.625" style="stroke:#446E9B;stroke-width:3.125;"/></g><!--link Polygon to Smart Contracts--><g id="link_Polygon_Smart Contracts"><path d="M146.875,207.25 C158.5104,207.25 163.8958,207.25 175.5417,207.25 " fill="none" id="Polygon-to-Smart Contracts" style="stroke:#446E9B;stroke-width:3.125;"/><polygon fill="#446E9B" points="181.7917,207.25,172.4167,203.0833,176.5833,207.25,172.4167,211.4167,181.7917,207.25" style="stroke:#446E9B;stroke-width:3.125;"/></g><!--reverse link Smart Contracts to Arbitrum--><g id="link_Smart Contracts_Arbitrum"><path d="M347.3021,207.25 C359.3958,207.25 365.2396,207.25 377.3438,207.25 " fill="none" id="Smart Contracts-backto-Arbitrum" style="stroke:#446E9B;stroke-width:3.125;"/><polygon fill="#446E9B" points="341.0521,207.25,350.4271,211.4167,346.2604,207.25,350.4271,203.0833,341.0521,207.25" style="stroke:#446E9B;stroke-width:3.125;"/></g><!--reverse link Smart Contracts to Base--><g id="link_Smart Contracts_Base"><path d="M212.6994,238.9636 C182.7307,257.8178 148.375,279.4271 118.6042,298.1563 " fill="none" id="Smart Contracts-backto-Base" style="stroke:#446E9B;stroke-width:3.125;"/><polygon fill="#446E9B" points="217.9896,235.6354,207.8356,237.1009,213.5811,238.4089,212.2731,244.1545,217.9896,235.6354" style="stroke:#446E9B;stroke-width:3.125;"/></g><!--link Zetachain to Smart Contracts--><g id="link_Zetachain_Smart Contracts"><path d="M202.4479,116.9167 C214.7292,135.5 227.47,154.7863 239.7825,173.4113 " fill="none" id="Zetachain-to-Smart Contracts" style="stroke:#446E9B;stroke-width:3.125;"/><polygon fill="#446E9B" points="243.2292,178.625,241.535,168.5066,240.3569,174.2802,234.5834,173.1022,243.2292,178.625" style="stroke:#446E9B;stroke-width:3.125;"/></g><!--link Smart Contracts to Cross-Chain Communication--><g id="link_Smart Contracts_Cross-Chain Communication"><path d="M263.6563,235.6354 C265.1458,254.2188 266.6131,272.4785 268.1131,291.1139 " fill="none" id="Smart Contracts-to-Cross-Chain Communication" style="stroke:#446E9B;stroke-width:3.125;"/><polygon fill="#446E9B" points="268.6146,297.3438,272.0156,287.6647,268.1967,292.1522,263.7092,288.3333,268.6146,297.3438" style="stroke:#446E9B;stroke-width:3.125;"/></g><!--link Cross-Chain Communication to Web3 Environments--><g id="link_Cross-Chain Communication_Web3 Environments"><path d="M273.2708,354.3542 C274.9375,372.9375 276.5683,391.2019 278.2349,409.8373 " fill="none" id="Cross-Chain Communication-to-Web3 Environments" style="stroke:#446E9B;stroke-width:3.125;"/><polygon fill="#446E9B" points="278.7917,416.0625,282.1066,406.3536,278.3277,410.8749,273.8064,407.0959,278.7917,416.0625" style="stroke:#446E9B;stroke-width:3.125;"/></g><!--link Web3 Environments to User Interfaces--><g id="link_Web3 Environments_User Interfaces"><path d="M372.25,444.6875 C390.7917,444.6875 403.0938,444.6875 421.6458,444.6875 " fill="none" id="Web3 Environments-to-User Interfaces" style="stroke:#446E9B;stroke-width:3.125;"/><polygon fill="#446E9B" points="427.8958,444.6875,418.5208,440.5208,422.6875,444.6875,418.5208,448.8542,427.8958,444.6875" style="stroke:#446E9B;stroke-width:3.125;"/></g><!--reverse link Web2 Environments to User Interfaces--><g id="link_Web2 Environments_User Interfaces"><path d="M511.5875,360.5792 C509.9209,379.1625 508.2917,397.4271 506.625,416.0625 " fill="none" id="Web2 Environments-backto-User Interfaces" style="stroke:#446E9B;stroke-width:3.125;"/><polygon fill="#446E9B" points="512.1458,354.3542,507.1584,363.3195,511.6806,359.5417,515.4584,364.0639,512.1458,354.3542" style="stroke:#446E9B;stroke-width:3.125;"/></g><!--SRC=[XP51Qm9138Nl_eheVIzw5zh5WmT142bKF6J7k3iuaqWcsr9A_tj75qLMjftBm9ll9NcPiJKK2T8P7GMiHla-OKqmMRAHbWrwXXNw06iL4oTX0jyZo6Uto4wbDkwXECWd5tFORIAgGIbiYixIlWFN4hvguSofhniR1b-qygRNYe6EVu2lc2X3xNaOUIT3Tvd-t_7wAXGNjbH9gUZobn9ZozwX-HoZSms_T_utgcQmu0-lmf7utkrPVrZBDf72TV77_1qtIr-z1S-bfhqMFxy0]--></g></svg>