<?xml version="1.0" encoding="us-ascii" standalone="no"?><svg xmlns="http://www.w3.org/2000/svg" xmlns:xlink="http://www.w3.org/1999/xlink" contentStyleType="text/css" height="547px" preserveAspectRatio="none" style="width:1089px;height:547px;background:#FFFFFF;" version="1.1" viewBox="0 0 1089 547" width="1089px" zoomAndPan="magnify"><defs/><g><!--cluster AI Flow Wallet--><g id="cluster_AI Flow Wallet"><path d="M8.5,6 L119.5,6 A3.75,3.75 0 0 1 122,8.5 L129,28.2969 L1079.5,28.2969 A2.5,2.5 0 0 1 1082,30.7969 L1082,538.39 A2.5,2.5 0 0 1 1079.5,540.89 L8.5,540.89 A2.5,2.5 0 0 1 6,538.39 L6,8.5 A2.5,2.5 0 0 1 8.5,6 " fill="none" style="stroke:#000000;stroke-width:1.5;"/><line style="stroke:#000000;stroke-width:1.5;" x1="6" x2="129" y1="28.2969" y2="28.2969"/><text fill="#000000" font-family="sans-serif" font-size="14" font-weight="bold" lengthAdjust="spacing" textLength="110" x="10" y="20.9951">AI Flow Wallet</text></g><!--cluster UserInterface--><g id="cluster_UserInterface"><rect fill="none" height="113.3" rx="2.5" ry="2.5" style="stroke:#181818;stroke-width:1.0;" width="301" x="616" y="57"/><rect fill="none" height="10" style="stroke:#181818;stroke-width:1.0;" width="15" x="897" y="62"/><rect fill="none" height="2" style="stroke:#181818;stroke-width:1.0;" width="4" x="895" y="64"/><rect fill="none" height="2" style="stroke:#181818;stroke-width:1.0;" width="4" x="895" y="68"/><text fill="#000000" font-family="sans-serif" font-size="14" font-weight="bold" lengthAdjust="spacing" textLength="108" x="712.5" y="82.9951">UserInterface</text></g><!--cluster Backend--><g id="cluster_Backend"><rect fill="none" height="273.59" rx="2.5" ry="2.5" style="stroke:#181818;stroke-width:1.0;" width="594" x="38" y="235.3"/><rect fill="none" height="10" style="stroke:#181818;stroke-width:1.0;" width="15" x="612" y="240.3"/><rect fill="none" height="2" style="stroke:#181818;stroke-width:1.0;" width="4" x="610" y="242.3"/><rect fill="none" height="2" style="stroke:#181818;stroke-width:1.0;" width="4" x="610" y="246.3"/><text fill="#000000" font-family="sans-serif" font-size="14" font-weight="bold" lengthAdjust="spacing" textLength="67" x="301.5" y="261.2951">Backend</text></g><!--cluster Blockchain Networks--><g id="cluster_Blockchain Networks"><path d="M674.5,395.59 L840.5,395.59 A3.75,3.75 0 0 1 843,398.09 L850,417.8869 L1047.5,417.8869 A2.5,2.5 0 0 1 1050,420.3869 L1050,506.39 A2.5,2.5 0 0 1 1047.5,508.89 L674.5,508.89 A2.5,2.5 0 0 1 672,506.39 L672,398.09 A2.5,2.5 0 0 1 674.5,395.59 " fill="none" style="stroke:#000000;stroke-width:1.5;"/><line style="stroke:#000000;stroke-width:1.5;" x1="672" x2="850" y1="417.8869" y2="417.8869"/><text fill="#000000" font-family="sans-serif" font-size="14" font-weight="bold" lengthAdjust="spacing" textLength="165" x="676" y="410.5851">Blockchain Networks</text></g><!--entity Frontend--><g id="elem_Frontend"><rect fill="#F1F1F1" height="46.2969" rx="2.5" ry="2.5" style="stroke:#181818;stroke-width:0.5;" width="103" x="789.5" y="100"/><rect fill="#F1F1F1" height="10" style="stroke:#181818;stroke-width:0.5;" width="15" x="872.5" y="105"/><rect fill="#F1F1F1" height="2" style="stroke:#181818;stroke-width:0.5;" width="4" x="870.5" y="107"/><rect fill="#F1F1F1" height="2" style="stroke:#181818;stroke-width:0.5;" width="4" x="870.5" y="111"/><text fill="#000000" font-family="sans-serif" font-size="14" lengthAdjust="spacing" textLength="63" x="804.5" y="132.9951">Frontend</text></g><!--entity Chatbot--><g id="elem_Chatbot"><rect fill="#F1F1F1" height="46.2969" rx="2.5" ry="2.5" style="stroke:#181818;stroke-width:0.5;" width="95" x="659.5" y="100"/><rect fill="#F1F1F1" height="10" style="stroke:#181818;stroke-width:0.5;" width="15" x="734.5" y="105"/><rect fill="#F1F1F1" height="2" style="stroke:#181818;stroke-width:0.5;" width="4" x="732.5" y="107"/><rect fill="#F1F1F1" height="2" style="stroke:#181818;stroke-width:0.5;" width="4" x="732.5" y="111"/><text fill="#000000" font-family="sans-serif" font-size="14" lengthAdjust="spacing" textLength="55" x="674.5" y="132.9951">Chatbot</text></g><!--entity API Gateway--><g id="elem_API Gateway"><rect fill="#F1F1F1" height="46.2969" rx="2.5" ry="2.5" style="stroke:#181818;stroke-width:0.5;" width="124" x="92" y="278.3"/><rect fill="#F1F1F1" height="10" style="stroke:#181818;stroke-width:0.5;" width="15" x="196" y="283.3"/><rect fill="#F1F1F1" height="2" style="stroke:#181818;stroke-width:0.5;" width="4" x="194" y="285.3"/><rect fill="#F1F1F1" height="2" style="stroke:#181818;stroke-width:0.5;" width="4" x="194" y="289.3"/><text fill="#000000" font-family="sans-serif" font-size="14" lengthAdjust="spacing" textLength="84" x="107" y="311.2951">API Gateway</text></g><!--entity AI Engine--><g id="elem_AI Engine"><rect fill="#F1F1F1" height="46.2969" rx="2.5" ry="2.5" style="stroke:#181818;stroke-width:0.5;" width="104" x="251" y="278.3"/><rect fill="#F1F1F1" height="10" style="stroke:#181818;stroke-width:0.5;" width="15" x="335" y="283.3"/><rect fill="#F1F1F1" height="2" style="stroke:#181818;stroke-width:0.5;" width="4" x="333" y="285.3"/><rect fill="#F1F1F1" height="2" style="stroke:#181818;stroke-width:0.5;" width="4" x="333" y="289.3"/><text fill="#000000" font-family="sans-serif" font-size="14" lengthAdjust="spacing" textLength="64" x="266" y="311.2951">AI Engine</text></g><!--entity Passkey Service--><g id="elem_Passkey Service"><rect fill="#F1F1F1" height="46.2969" rx="2.5" ry="2.5" style="stroke:#181818;stroke-width:0.5;" width="151" x="389.5" y="278.3"/><rect fill="#F1F1F1" height="10" style="stroke:#181818;stroke-width:0.5;" width="15" x="520.5" y="283.3"/><rect fill="#F1F1F1" height="2" style="stroke:#181818;stroke-width:0.5;" width="4" x="518.5" y="285.3"/><rect fill="#F1F1F1" height="2" style="stroke:#181818;stroke-width:0.5;" width="4" x="518.5" y="289.3"/><text fill="#000000" font-family="sans-serif" font-size="14" lengthAdjust="spacing" textLength="111" x="404.5" y="311.2951">Passkey Service</text></g><!--entity Transaction Manager--><g id="elem_Transaction Manager"><rect fill="#F1F1F1" height="46.2969" rx="2.5" ry="2.5" style="stroke:#181818;stroke-width:0.5;" width="185" x="61.5" y="438.59"/><rect fill="#F1F1F1" height="10" style="stroke:#181818;stroke-width:0.5;" width="15" x="226.5" y="443.59"/><rect fill="#F1F1F1" height="2" style="stroke:#181818;stroke-width:0.5;" width="4" x="224.5" y="445.59"/><rect fill="#F1F1F1" height="2" style="stroke:#181818;stroke-width:0.5;" width="4" x="224.5" y="449.59"/><text fill="#000000" font-family="sans-serif" font-size="14" lengthAdjust="spacing" textLength="145" x="76.5" y="471.5851">Transaction Manager</text></g><!--entity Cross-Chain Service--><g id="elem_Cross-Chain Service"><rect fill="#F1F1F1" height="46.2969" rx="2.5" ry="2.5" style="stroke:#181818;stroke-width:0.5;" width="178" x="281" y="438.59"/><rect fill="#F1F1F1" height="10" style="stroke:#181818;stroke-width:0.5;" width="15" x="439" y="443.59"/><rect fill="#F1F1F1" height="2" style="stroke:#181818;stroke-width:0.5;" width="4" x="437" y="445.59"/><rect fill="#F1F1F1" height="2" style="stroke:#181818;stroke-width:0.5;" width="4" x="437" y="449.59"/><text fill="#000000" font-family="sans-serif" font-size="14" lengthAdjust="spacing" textLength="138" x="296" y="471.5851">Cross-Chain Service</text></g><!--entity Database--><g id="elem_Database"><rect fill="#F1F1F1" height="46.2969" rx="2.5" ry="2.5" style="stroke:#181818;stroke-width:0.5;" width="106" x="494" y="438.59"/><rect fill="#F1F1F1" height="10" style="stroke:#181818;stroke-width:0.5;" width="15" x="580" y="443.59"/><rect fill="#F1F1F1" height="2" style="stroke:#181818;stroke-width:0.5;" width="4" x="578" y="445.59"/><rect fill="#F1F1F1" height="2" style="stroke:#181818;stroke-width:0.5;" width="4" x="578" y="449.59"/><text fill="#000000" font-family="sans-serif" font-size="14" lengthAdjust="spacing" textLength="66" x="509" y="471.5851">Database</text></g><!--entity OPBNB Testnet--><g id="elem_OPBNB Testnet"><rect fill="#F1F1F1" height="46.2969" rx="2.5" ry="2.5" style="stroke:#181818;stroke-width:0.5;" width="148" x="878" y="438.59"/><rect fill="#F1F1F1" height="10" style="stroke:#181818;stroke-width:0.5;" width="15" x="1006" y="443.59"/><rect fill="#F1F1F1" height="2" style="stroke:#181818;stroke-width:0.5;" width="4" x="1004" y="445.59"/><rect fill="#F1F1F1" height="2" style="stroke:#181818;stroke-width:0.5;" width="4" x="1004" y="449.59"/><text fill="#000000" font-family="sans-serif" font-size="14" lengthAdjust="spacing" textLength="108" x="893" y="471.5851">OPBNB Testnet</text></g><!--entity BSC Testnet--><g id="elem_BSC Testnet"><rect fill="#F1F1F1" height="46.2969" rx="2.5" ry="2.5" style="stroke:#181818;stroke-width:0.5;" width="127" x="715.5" y="438.59"/><rect fill="#F1F1F1" height="10" style="stroke:#181818;stroke-width:0.5;" width="15" x="822.5" y="443.59"/><rect fill="#F1F1F1" height="2" style="stroke:#181818;stroke-width:0.5;" width="4" x="820.5" y="445.59"/><rect fill="#F1F1F1" height="2" style="stroke:#181818;stroke-width:0.5;" width="4" x="820.5" y="449.59"/><text fill="#000000" font-family="sans-serif" font-size="14" lengthAdjust="spacing" textLength="87" x="730.5" y="471.5851">BSC Testnet</text></g><!--link UserInterface to Backend--><g id="link_UserInterface_Backend"><path d="M624,170.8058 C624,171.1042 624,171.4033 624,171.7033 C624,172.3033 624,172.9064 624,173.5126 C624,175.9375 624,178.4112 624,180.9241 C624,190.9756 624,201.6531 624,212.33 C624,217.6684 624,223.0067 624,228.2665 C624,229.5815 624,230.8915 624,232.1954 C624,232.8474 624,233.4978 624,234.1466 C624,234.4709 624,228.7949 624,229.1184 " fill="none" id="UserInterface-to-Backend" style="stroke:#181818;stroke-width:1.0;"/><polygon fill="#181818" points="624,235.1184,628,226.1184,624,230.1184,620,226.1184,624,235.1184" style="stroke:#181818;stroke-width:1.0;"/><text fill="#000000" font-family="sans-serif" font-size="13" lengthAdjust="spacing" textLength="97" x="625" y="207.3669">Communicates</text></g><!--link Backend to Blockchain Networks--><g id="link_Backend_Blockchain Networks"><path d="M632.0643,325.2404 C632.1414,325.4583 632.2189,325.6774 632.2968,325.8977 C632.6085,326.7787 632.9269,327.6785 633.2514,328.5958 C638.4441,343.2728 645.2281,362.4481 652.0113,381.6213 C658.7944,400.7944 665.5766,419.9653 670.7655,434.6336 C671.0898,435.5504 671.4079,436.4495 671.7193,437.33 C671.7972,437.5502 669.8737,432.1126 669.9507,432.3304 " fill="none" id="Backend-to-Blockchain Networks" style="stroke:#181818;stroke-width:1.0;"/><polygon fill="#181818" points="671.9517,437.9869,672.7213,428.1681,670.2842,433.2731,665.1792,430.8361,671.9517,437.9869" style="stroke:#181818;stroke-width:1.0;"/><text fill="#000000" font-family="sans-serif" font-size="13" lengthAdjust="spacing" textLength="143" x="647" y="367.6569">Executes Transactions</text></g><!--SRC=[RP6nRi9038RtF8MLFI_0K8caK6KeZGHLXwY3kRfmIc97vwCfgdZt7ZGHHuN7tx_jptQFfi4TGJelOTdA06_OjkHJ-4aWX96k5oRsyAhaIlRaFj7Gc3r7lNGIPFvulqh57lrM_9zoIlvroiF8u8zxpAiIdj3JWCUeJK1QyCuoHLg5gWqTOKtkoveuit78YiPRONX63akv6Cc9QXR0BD-fVKIFMrIw8RxTECiU9l8P5D9r1xOc8El5E-rqTgLvAwOnbr4hyeEuHjCPBBx9788V8b1Dmgn-Ui6zkl5AzKkLhtBOa7gcyR1rlYwkokaN]--></g></svg>